<svg width="65" height="47" viewBox="0 0 65 47" fill="none" xmlns="http://www.w3.org/2000/svg">
<path d="M-0.000359058 46.0801V1.28008H5.37564V41.2161H28.0956V46.0801H-0.000359058ZM51.6226 8.70407C50.3426 8.70407 49.276 8.27741 48.4226 7.42408C47.5693 6.57074 47.1426 5.54674 47.1426 4.35208C47.1426 3.11474 47.5693 2.09074 48.4226 1.28008C49.276 0.426743 50.3426 7.62939e-05 51.6226 7.62939e-05C52.86 7.62939e-05 53.9053 0.426743 54.7586 1.28008C55.6546 2.09074 56.1026 3.11474 56.1026 4.35208C56.1026 5.54674 55.6546 6.57074 54.7586 7.42408C53.9053 8.27741 52.86 8.70407 51.6226 8.70407ZM39.2066 46.0801V41.4721H49.3186V20.5441C49.3186 19.4774 48.7853 18.9441 47.7186 18.9441H40.2946V14.3361H48.9986C52.796 14.3361 54.6946 16.2347 54.6946 20.0321V41.4721H64.8066V46.0801H39.2066Z" fill="#161616"/>
</svg>
